<svg width="24" height="24" viewBox="0 0 24 24" fill="none" xmlns="http://www.w3.org/2000/svg">
<path d="M19.3408 16.1728L15.8416 15.472C15.4704 15.3984 15.2 15.0688 15.2 14.688V13.8848C15.4304 13.5648 15.6464 13.1376 15.8704 12.6912C16.0416 12.3536 16.2992 11.8448 16.4144 11.7248C17.0928 11.0608 17.816 10.2368 18.0368 9.1632C18.2368 8.1904 18.0368 7.6848 17.8048 7.2848C17.8048 6.5024 17.8048 5.0704 17.5329 4.0384C17.5056 2.792 17.2768 2.088 16.7024 1.4608C16.296 1.0224 15.6976 0.92 15.2176 0.8384C15.0272 0.8064 14.7664 0.7616 14.6752 0.712C13.8448 0.2528 13.0016 0.0256 11.9696 0C9.85765 0.08 7.26565 1.4192 6.39845 3.8272C6.13445 4.5584 6.16005 5.7584 6.17925 6.7232L6.15685 7.2848C5.95365 7.6848 5.75365 8.1904 5.95525 9.1616C6.17605 10.24 6.89925 11.0624 7.57445 11.7232C7.69125 11.8448 7.95205 12.3568 8.12485 12.6944C8.35205 13.1392 8.56965 13.5664 8.80005 13.8864V14.688C8.80005 15.0688 8.52965 15.3984 8.15685 15.472L4.65765 16.1728C2.42245 16.6192 0.800049 18.5984 0.800049 20.8784V22.4C0.800049 23.2816 1.51845 24 2.40005 24H21.6C22.4816 24 23.2 23.2816 23.2 22.4V20.8784C23.2 18.5984 21.5777 16.6192 19.3408 16.1728Z" fill="url(#paint0_linear)"/>
<defs>
<linearGradient id="paint0_linear" x1="23.2" y1="0" x2="0.800049" y2="0" gradientUnits="userSpaceOnUse">
<stop stop-color="#8743FF"/>
<stop offset="1" stop-color="#4136F1"/>
</linearGradient>
</defs>
</svg>
